<svg width="35" height="17" viewBox="0 0 35 17" fill="none" xmlns="http://www.w3.org/2000/svg">
<path d="M17.5 0.299805C22.2972 0.299805 26.6254 1.2454 29.7432 2.75977C32.8815 4.28409 34.7002 6.33223 34.7002 8.5C34.7002 10.6678 32.8815 12.7159 29.7432 14.2402C26.6254 15.7546 22.2972 16.7002 17.5 16.7002C12.7028 16.7002 8.37465 15.7546 5.25684 14.2402C2.11852 12.7159 0.299805 10.6678 0.299805 8.5C0.299805 6.33223 2.11852 4.28409 5.25684 2.75977C8.37465 1.2454 12.7028 0.299805 17.5 0.299805Z" fill="#F5F6DC" stroke="#852623" stroke-width="0.6"/>
<path d="M5.764 11.2398C5.7 10.9998 5.68 10.7758 5.704 10.5678C5.728 10.3518 5.776 10.1638 5.848 10.0038C5.92 9.8438 6.008 9.7198 6.112 9.6318C6.224 9.5358 6.336 9.4878 6.448 9.4878C6.528 9.4878 6.612 9.5238 6.7 9.5958C6.788 9.6598 6.872 9.7398 6.952 9.8358C7.04 9.9318 7.116 10.0318 7.18 10.1358C7.244 10.2318 7.288 10.3118 7.312 10.3758C7.344 10.4318 7.384 10.4478 7.432 10.4238C7.48 10.4078 7.496 10.3678 7.48 10.3038C7.424 10.1838 7.34 10.0518 7.228 9.9078C7.116 9.7558 6.988 9.6118 6.844 9.4758C6.78 9.4118 6.712 9.3518 6.64 9.2958C6.568 9.2318 6.496 9.1638 6.424 9.0918C6.136 8.7958 5.916 8.4478 5.764 8.0478C5.612 7.6478 5.544 7.2438 5.56 6.8358C5.568 6.5718 5.612 6.3198 5.692 6.0798C5.78 5.8318 5.9 5.6118 6.052 5.4198C6.204 5.2278 6.388 5.0758 6.604 4.9638C6.82 4.8438 7.068 4.7798 7.348 4.7718C7.836 4.7558 8.236 4.8798 8.548 5.1438C8.868 5.4078 9.088 5.7678 9.208 6.2238C9.296 6.5678 9.3 6.8758 9.22 7.1478C9.14 7.4198 8.972 7.6438 8.716 7.8198C8.532 7.9558 8.352 8.0238 8.176 8.0238C8.064 8.0238 7.96 7.9878 7.864 7.9158C7.768 7.8438 7.68 7.7558 7.6 7.6518C7.52 7.5478 7.452 7.4398 7.396 7.3278C7.34 7.2078 7.296 7.1038 7.264 7.0158C7.248 6.9598 7.208 6.9398 7.144 6.9558C7.08 6.9718 7.064 7.0118 7.096 7.0758C7.136 7.2038 7.196 7.3438 7.276 7.4958C7.364 7.6398 7.464 7.7798 7.576 7.9158C7.712 8.0518 7.876 8.1998 8.068 8.3598C8.26 8.5198 8.444 8.7038 8.62 8.9118C8.796 9.1118 8.944 9.3438 9.064 9.6078C9.184 9.8638 9.244 10.1598 9.244 10.4958C9.244 10.7438 9.208 10.9838 9.136 11.2158C9.072 11.4478 8.972 11.6558 8.836 11.8398C8.7 12.0158 8.528 12.1598 8.32 12.2718C8.12 12.3758 7.884 12.4318 7.612 12.4398C7.164 12.4558 6.768 12.3678 6.424 12.1758C6.088 11.9758 5.868 11.6638 5.764 11.2398ZM11.8875 4.5318C12.3355 4.5478 12.7155 4.6758 13.0275 4.9158C13.3475 5.1558 13.6035 5.4678 13.7955 5.8518C13.9875 6.2278 14.1195 6.6598 14.1915 7.1478C14.2715 7.6278 14.2915 8.1198 14.2515 8.6238C14.2195 9.1278 14.1315 9.6198 13.9875 10.0998C13.8515 10.5798 13.6675 11.0078 13.4355 11.3838C13.2035 11.7598 12.9235 12.0678 12.5955 12.3078C12.2755 12.5398 11.9115 12.6598 11.5035 12.6678C11.1755 12.6758 10.8795 12.5638 10.6155 12.3318C10.3595 12.0998 10.1435 11.7918 9.96747 11.4078C9.79147 11.0158 9.65547 10.5758 9.55947 10.0878C9.47147 9.5918 9.42747 9.0878 9.42747 8.5758C9.42747 8.0638 9.47547 7.5638 9.57147 7.0758C9.66747 6.5798 9.81547 6.1438 10.0155 5.7678C10.2235 5.3838 10.4795 5.0798 10.7835 4.8558C11.0955 4.6238 11.4635 4.5158 11.8875 4.5318ZM13.0395 6.0798C12.9595 5.9918 12.8635 5.9678 12.7515 6.0078C12.6475 6.0398 12.5755 6.1118 12.5355 6.2238C12.5115 6.3038 12.4835 6.4478 12.4515 6.6558C12.4195 6.8638 12.4035 7.0798 12.4035 7.3038C12.4115 7.5278 12.4435 7.7238 12.4995 7.8918C12.5555 8.0598 12.6515 8.1398 12.7875 8.1318C12.9075 8.1318 12.9995 8.0398 13.0635 7.8558C13.1355 7.6638 13.1795 7.4518 13.1955 7.2198C13.2195 6.9798 13.2155 6.7478 13.1835 6.5238C13.1595 6.2998 13.1115 6.1518 13.0395 6.0798ZM11.3835 6.1278C11.3435 6.0398 11.2755 5.9958 11.1795 5.9958C11.0995 5.9958 11.0315 6.0478 10.9755 6.1518C10.9275 6.2558 10.8875 6.3878 10.8555 6.5478C10.8235 6.7078 10.8035 6.8838 10.7955 7.0758C10.7955 7.2598 10.8035 7.4358 10.8195 7.6038C10.8435 7.7638 10.8755 7.9038 10.9155 8.0238C10.9635 8.1358 11.0235 8.1958 11.0955 8.2038C11.1675 8.2118 11.2275 8.1758 11.2755 8.0958C11.3235 8.0158 11.3635 7.9118 11.3955 7.7838C11.4275 7.6478 11.4515 7.4998 11.4675 7.3398C11.4835 7.1718 11.4875 7.0078 11.4795 6.8478C11.4795 6.6878 11.4715 6.5438 11.4555 6.4158C11.4395 6.2878 11.4155 6.1918 11.3835 6.1278ZM12.6915 9.8238C12.7235 9.7278 12.7795 9.6358 12.8595 9.5478C12.9395 9.4598 13.0235 9.3958 13.1115 9.3558C13.1195 9.3798 13.1235 9.4078 13.1235 9.4398C13.1315 9.4718 13.1395 9.5078 13.1475 9.5478C13.1475 9.6038 13.1795 9.6318 13.2435 9.6318C13.2995 9.6318 13.3275 9.5998 13.3275 9.5358C13.3195 9.4638 13.3075 9.3998 13.2915 9.3438C13.2835 9.2798 13.2595 9.2198 13.2195 9.1638C13.1555 9.0598 13.0515 8.9798 12.9075 8.9238C12.8595 8.8918 12.8195 8.9078 12.7875 8.9718C12.7555 9.0198 12.7715 9.0598 12.8355 9.0918C12.8755 9.1078 12.9075 9.1278 12.9315 9.1518C12.9635 9.1678 12.9915 9.1838 13.0155 9.1998C12.8555 9.3278 12.6555 9.4478 12.4155 9.5598C12.1755 9.6718 11.9275 9.7518 11.6715 9.7998C11.4155 9.8478 11.1675 9.8478 10.9275 9.7998C10.6875 9.7518 10.4875 9.6398 10.3275 9.4638C10.3755 9.3918 10.4475 9.3318 10.5435 9.2838C10.5915 9.2438 10.6035 9.1998 10.5795 9.1518C10.5635 9.1358 10.5435 9.1238 10.5195 9.1158C10.4955 9.1078 10.4755 9.1118 10.4595 9.1278C10.2995 9.2078 10.1835 9.3158 10.1115 9.4518C10.0395 9.5718 9.99547 9.7118 9.97947 9.8718C9.97947 9.9358 10.0075 9.9678 10.0635 9.9678C10.1275 9.9678 10.1595 9.9398 10.1595 9.8838C10.1755 9.7718 10.2035 9.6718 10.2435 9.5838C10.2835 9.6158 10.3275 9.6678 10.3755 9.7398C10.4315 9.8118 10.4675 9.8678 10.4835 9.9078C10.5315 10.0438 10.6075 10.1838 10.7115 10.3278C10.8235 10.4638 10.9355 10.5638 11.0475 10.6278C11.2235 10.7318 11.3955 10.7798 11.5635 10.7718C11.7395 10.7638 11.8995 10.7198 12.0435 10.6398C12.1875 10.5518 12.3155 10.4358 12.4275 10.2918C12.5475 10.1478 12.6355 9.9918 12.6915 9.8238ZM16.8797 4.5318C17.3277 4.5478 17.7077 4.6758 18.0197 4.9158C18.3397 5.1558 18.5957 5.4678 18.7877 5.8518C18.9797 6.2278 19.1117 6.6598 19.1837 7.1478C19.2637 7.6278 19.2837 8.1198 19.2437 8.6238C19.2117 9.1278 19.1237 9.6198 18.9797 10.0998C18.8437 10.5798 18.6597 11.0078 18.4277 11.3838C18.1957 11.7598 17.9157 12.0678 17.5877 12.3078C17.2677 12.5398 16.9037 12.6598 16.4957 12.6678C16.1677 12.6758 15.8717 12.5638 15.6077 12.3318C15.3517 12.0998 15.1357 11.7918 14.9597 11.4078C14.7837 11.0158 14.6477 10.5758 14.5517 10.0878C14.4637 9.5918 14.4197 9.0878 14.4197 8.5758C14.4197 8.0638 14.4677 7.5638 14.5637 7.0758C14.6597 6.5798 14.8077 6.1438 15.0077 5.7678C15.2157 5.3838 15.4717 5.0798 15.7757 4.8558C16.0877 4.6238 16.4557 4.5158 16.8797 4.5318ZM18.0317 6.0798C17.9517 5.9918 17.8557 5.9678 17.7437 6.0078C17.6397 6.0398 17.5677 6.1118 17.5277 6.2238C17.5037 6.3038 17.4757 6.4478 17.4437 6.6558C17.4117 6.8638 17.3957 7.0798 17.3957 7.3038C17.4037 7.5278 17.4357 7.7238 17.4917 7.8918C17.5477 8.0598 17.6437 8.1398 17.7797 8.1318C17.8997 8.1318 17.9917 8.0398 18.0557 7.8558C18.1277 7.6638 18.1717 7.4518 18.1877 7.2198C18.2117 6.9798 18.2077 6.7478 18.1757 6.5238C18.1517 6.2998 18.1037 6.1518 18.0317 6.0798ZM16.3757 6.1278C16.3357 6.0398 16.2677 5.9958 16.1717 5.9958C16.0917 5.9958 16.0237 6.0478 15.9677 6.1518C15.9197 6.2558 15.8797 6.3878 15.8477 6.5478C15.8157 6.7078 15.7957 6.8838 15.7877 7.0758C15.7877 7.2598 15.7957 7.4358 15.8117 7.6038C15.8357 7.7638 15.8677 7.9038 15.9077 8.0238C15.9557 8.1358 16.0157 8.1958 16.0877 8.2038C16.1597 8.2118 16.2197 8.1758 16.2677 8.0958C16.3157 8.0158 16.3557 7.9118 16.3877 7.7838C16.4197 7.6478 16.4437 7.4998 16.4597 7.3398C16.4757 7.1718 16.4797 7.0078 16.4717 6.8478C16.4717 6.6878 16.4637 6.5438 16.4477 6.4158C16.4317 6.2878 16.4077 6.1918 16.3757 6.1278ZM17.6837 9.8238C17.7157 9.7278 17.7717 9.6358 17.8517 9.5478C17.9317 9.4598 18.0157 9.3958 18.1037 9.3558C18.1117 9.3798 18.1157 9.4078 18.1157 9.4398C18.1237 9.4718 18.1317 9.5078 18.1397 9.5478C18.1397 9.6038 18.1717 9.6318 18.2357 9.6318C18.2917 9.6318 18.3197 9.5998 18.3197 9.5358C18.3117 9.4638 18.2997 9.3998 18.2837 9.3438C18.2757 9.2798 18.2517 9.2198 18.2117 9.1638C18.1477 9.0598 18.0437 8.9798 17.8997 8.9238C17.8517 8.8918 17.8117 8.9078 17.7797 8.9718C17.7477 9.0198 17.7637 9.0598 17.8277 9.0918C17.8677 9.1078 17.8997 9.1278 17.9237 9.1518C17.9557 9.1678 17.9837 9.1838 18.0077 9.1998C17.8477 9.3278 17.6477 9.4478 17.4077 9.5598C17.1677 9.6718 16.9197 9.7518 16.6637 9.7998C16.4077 9.8478 16.1597 9.8478 15.9197 9.7998C15.6797 9.7518 15.4797 9.6398 15.3197 9.4638C15.3677 9.3918 15.4397 9.3318 15.5357 9.2838C15.5837 9.2438 15.5957 9.1998 15.5717 9.1518C15.5557 9.1358 15.5357 9.1238 15.5117 9.1158C15.4877 9.1078 15.4677 9.1118 15.4517 9.1278C15.2917 9.2078 15.1757 9.3158 15.1037 9.4518C15.0317 9.5718 14.9877 9.7118 14.9717 9.8718C14.9717 9.9358 14.9997 9.9678 15.0557 9.9678C15.1197 9.9678 15.1517 9.9398 15.1517 9.8838C15.1677 9.7718 15.1957 9.6718 15.2357 9.5838C15.2757 9.6158 15.3197 9.6678 15.3677 9.7398C15.4237 9.8118 15.4597 9.8678 15.4757 9.9078C15.5237 10.0438 15.5997 10.1838 15.7037 10.3278C15.8157 10.4638 15.9277 10.5638 16.0397 10.6278C16.2157 10.7318 16.3877 10.7798 16.5557 10.7718C16.7317 10.7638 16.8917 10.7198 17.0357 10.6398C17.1797 10.5518 17.3077 10.4358 17.4197 10.2918C17.5397 10.1478 17.6277 9.9918 17.6837 9.8238ZM20.0358 5.0118C20.2678 4.9318 20.5038 4.8918 20.7438 4.8918C21.0718 4.8918 21.3798 4.9638 21.6678 5.1078C21.9558 5.2438 22.2118 5.4198 22.4358 5.6358C22.6598 5.8518 22.8478 6.0838 22.9998 6.3318C23.1518 6.5798 23.2558 6.8118 23.3118 7.0278C23.3918 7.3318 23.3998 7.6238 23.3358 7.9038C23.2798 8.1758 23.1678 8.4198 22.9998 8.6358C22.8318 8.8518 22.6158 9.0318 22.3518 9.1758C22.0958 9.3118 21.8118 9.3958 21.4998 9.4278C21.4998 9.4358 21.5198 9.4798 21.5598 9.5598C21.6078 9.6318 21.6598 9.7198 21.7158 9.8238C21.7798 9.9198 21.8398 10.0198 21.8958 10.1238C21.9518 10.2198 21.9878 10.2958 22.0038 10.3518C22.0758 10.6238 22.0998 10.8798 22.0758 11.1198C22.0518 11.3598 21.9838 11.5718 21.8718 11.7558C21.7678 11.9398 21.6278 12.0878 21.4518 12.1998C21.2838 12.3038 21.0878 12.3598 20.8638 12.3678C20.6878 12.3758 20.5438 12.3478 20.4318 12.2838C20.3198 12.2198 20.2278 12.1358 20.1558 12.0318C20.0918 11.9278 20.0478 11.8078 20.0238 11.6718C20.0078 11.5358 19.9998 11.3958 19.9998 11.2518C20.0078 11.0038 20.0198 10.7998 20.0358 10.6398C20.0518 10.4718 20.0558 10.2918 20.0478 10.0998C20.0398 9.9078 20.0078 9.6678 19.9518 9.3798C19.9038 9.0918 19.8118 8.6998 19.6758 8.2038C19.6198 8.0038 19.5598 7.7478 19.4958 7.4358C19.4318 7.1158 19.3958 6.7958 19.3878 6.4758C19.3878 6.1478 19.4318 5.8478 19.5198 5.5758C19.6158 5.3038 19.7878 5.1158 20.0358 5.0118ZM21.0798 6.0798C21.1518 6.1838 21.2238 6.3158 21.2958 6.4758C21.3678 6.6278 21.4358 6.7878 21.4998 6.9558C21.5638 7.1158 21.6198 7.2758 21.6678 7.4358C21.7158 7.5958 21.7518 7.7398 21.7758 7.8678C21.7918 7.9238 21.8278 7.9478 21.8838 7.9398C21.9478 7.9238 21.9718 7.8878 21.9558 7.8318C21.9318 7.7118 21.8918 7.5678 21.8358 7.3998C21.7878 7.2318 21.7278 7.0598 21.6558 6.8838C21.5838 6.7078 21.5078 6.5398 21.4278 6.3798C21.3558 6.2118 21.2878 6.0798 21.2238 5.9838C21.1918 5.9358 21.1518 5.9278 21.1038 5.9598C21.0398 5.9918 21.0318 6.0318 21.0798 6.0798ZM23.5974 10.4958C23.6534 10.2078 23.6774 9.9278 23.6694 9.6558C23.6614 9.3838 23.6374 9.0998 23.5974 8.8038C23.5574 8.5238 23.5414 8.2838 23.5494 8.0838C23.5574 7.8758 23.5894 7.6918 23.6454 7.5318C23.7014 7.3638 23.7774 7.2118 23.8734 7.0758C23.9694 6.9398 24.0814 6.8078 24.2094 6.6798C23.9454 6.6078 23.7574 6.4958 23.6454 6.3438C23.5334 6.1918 23.4854 6.0198 23.5014 5.8278C23.5094 5.6678 23.5454 5.5238 23.6094 5.3958C23.6814 5.2598 23.7734 5.1438 23.8854 5.0478C23.9974 4.9438 24.1254 4.8678 24.2694 4.8198C24.4134 4.7638 24.5694 4.7358 24.7374 4.7358C25.0654 4.7438 25.3134 4.8278 25.4814 4.9878C25.6494 5.1398 25.7214 5.3438 25.6974 5.5998C25.6734 5.8318 25.6014 6.0238 25.4814 6.1758C25.3614 6.3198 25.2214 6.4478 25.0614 6.5598C25.2214 6.6638 25.3374 6.7838 25.4094 6.9198C25.4814 7.0558 25.5214 7.1998 25.5294 7.3518C25.5374 7.5038 25.5214 7.6598 25.4814 7.8198C25.4414 7.9798 25.3894 8.1318 25.3254 8.2758C25.2694 8.4198 25.2334 8.5398 25.2174 8.6358C25.2094 8.7318 25.2174 8.8198 25.2414 8.8998C25.2654 8.9718 25.3094 9.0478 25.3734 9.1278C25.4374 9.2078 25.5174 9.3078 25.6134 9.4278C25.8694 9.7238 26.0334 10.0438 26.1054 10.3878C26.1854 10.7318 26.1814 11.0558 26.0934 11.3598C26.0054 11.6638 25.8374 11.9278 25.5894 12.1518C25.3494 12.3678 25.0334 12.4998 24.6414 12.5478C24.3134 12.5798 24.0654 12.5318 23.8974 12.4038C23.7374 12.2758 23.6254 12.1078 23.5614 11.8998C23.5054 11.6838 23.4854 11.4518 23.5014 11.2038C23.5254 10.9478 23.5574 10.7118 23.5974 10.4958ZM26.7038 5.0118C26.9358 4.9318 27.1718 4.8918 27.4118 4.8918C27.7398 4.8918 28.0478 4.9638 28.3358 5.1078C28.6238 5.2438 28.8798 5.4198 29.1038 5.6358C29.3278 5.8518 29.5158 6.0838 29.6678 6.3318C29.8198 6.5798 29.9238 6.8118 29.9798 7.0278C30.0598 7.3318 30.0678 7.6238 30.0038 7.9038C29.9478 8.1758 29.8358 8.4198 29.6678 8.6358C29.4998 8.8518 29.2838 9.0318 29.0198 9.1758C28.7638 9.3118 28.4798 9.3958 28.1678 9.4278C28.1678 9.4358 28.1878 9.4798 28.2278 9.5598C28.2758 9.6318 28.3278 9.7198 28.3838 9.8238C28.4478 9.9198 28.5078 10.0198 28.5638 10.1238C28.6198 10.2198 28.6558 10.2958 28.6718 10.3518C28.7438 10.6238 28.7678 10.8798 28.7438 11.1198C28.7198 11.3598 28.6518 11.5718 28.5398 11.7558C28.4358 11.9398 28.2958 12.0878 28.1198 12.1998C27.9518 12.3038 27.7558 12.3598 27.5318 12.3678C27.3558 12.3758 27.2118 12.3478 27.0998 12.2838C26.9878 12.2198 26.8958 12.1358 26.8238 12.0318C26.7598 11.9278 26.7158 11.8078 26.6918 11.6718C26.6758 11.5358 26.6678 11.3958 26.6678 11.2518C26.6758 11.0038 26.6878 10.7998 26.7038 10.6398C26.7198 10.4718 26.7238 10.2918 26.7158 10.0998C26.7078 9.9078 26.6758 9.6678 26.6198 9.3798C26.5718 9.0918 26.4798 8.6998 26.3438 8.2038C26.2878 8.0038 26.2278 7.7478 26.1638 7.4358C26.0998 7.1158 26.0638 6.7958 26.0558 6.4758C26.0558 6.1478 26.0998 5.8478 26.1878 5.5758C26.2838 5.3038 26.4558 5.1158 26.7038 5.0118ZM27.7478 6.0798C27.8198 6.1838 27.8918 6.3158 27.9638 6.4758C28.0358 6.6278 28.1038 6.7878 28.1678 6.9558C28.2318 7.1158 28.2878 7.2758 28.3358 7.4358C28.3838 7.5958 28.4198 7.7398 28.4438 7.8678C28.4598 7.9238 28.4958 7.9478 28.5518 7.9398C28.6158 7.9238 28.6398 7.8878 28.6238 7.8318C28.5998 7.7118 28.5598 7.5678 28.5038 7.3998C28.4558 7.2318 28.3958 7.0598 28.3238 6.8838C28.2518 6.7078 28.1758 6.5398 28.0958 6.3798C28.0238 6.2118 27.9558 6.0798 27.8918 5.9838C27.8598 5.9358 27.8198 5.9278 27.7718 5.9598C27.7078 5.9918 27.6998 6.0318 27.7478 6.0798Z" fill="#852623"/>
</svg>
